# xmcd
#
# Track frame offsets: 
#        150
#        18274
#        38735
#        52263
#        75608
#        93414
#        116940
#        150777
#        165859
#
# Disc length: 2839 seconds
#
# Revision: 0
# Processed by: cddbd v1.5.2PL0 Copyright (c) Steve Scherf et al.
# Submitted via: ExactAudioCopy v0.99pb4
#
DISCID=5e0b1509
DTITLE=Bootleg - Boot Leg
DYEAR=2004
DGENRE=Blues
TTITLE0=Like Bob Dylan Said
TTITLE1=Moving On
TTITLE2=Don't Know Why
TTITLE3=Enlightenment
TTITLE4=Spoonful
TTITLE5=April 7th
TTITLE6=Masters of War
TTITLE7=I Be's Troubled
TTITLE8=Get Out on the Street
EXTD=
EXTT0=
EXTT1=
EXTT2=
EXTT3=
EXTT4=
EXTT5=
EXTT6=
EXTT7=
EXTT8=
PLAYORDER=
